<?xml version="1.0" standalone="no"?><!DOCTYPE svg PUBLIC "-//W3C//DTD SVG 1.1//EN" "http://www.w3.org/Graphics/SVG/1.1/DTD/svg11.dtd"><svg t="1637914545533" class="icon" viewBox="0 0 1024 1024" version="1.1" xmlns="http://www.w3.org/2000/svg" p-id="9130" xmlns:xlink="http://www.w3.org/1999/xlink" width="32" height="32"><defs><style type="text/css"></style></defs><path d="M750.5 560.7v244.5h-477V280.8H457v-126H269c-67.1 0-121.5 54.4-121.5 121.5v533.1c0 67.3 54.6 121.9 121.9 121.9H755c67.1 0 121.5-54.4 121.5-121.5v-249h-126z" fill="#606266" p-id="9131"></path><path d="M716.1 475.6c-23.5 0-42.5-19-42.5-42.5V197.3c0-23.5 19-42.5 42.5-42.5s42.5 19 42.5 42.5v235.8c0 23.5-19 42.5-42.5 42.5z" fill="#F65509" p-id="9132"></path><path d="M876.5 315.2c0 23.5-19 42.5-42.5 42.5H598.2c-23.5 0-42.5-19-42.5-42.5s19-42.5 42.5-42.5H834c23.5 0 42.5 19 42.5 42.5z" fill="#F65509" p-id="9133"></path></svg>